# xmcd CD database file
#
# Track frame offsets:
#	150
#	5523
#	31565
#	55168
#	79114
#	98495
#	106072
#	131751
#	146298
#	155349
#	175498
#	200647
#
# Disc length: 2857 seconds
#
# Revision: 1
# Processed by: cddbd v1.5.2PL0 Copyright (c) Steve Scherf et al.
# Submitted via: CDex 1.70beta3
#
DISCID=8e0b270c
DTITLE=発熱巫女～ず - アンチェインドメロディ
DYEAR=2009
DGENRE=東方アレンジ
TTITLE0=inocephonia(小さな小さな賢将)
TTITLE1=Flower of Life(桜花之恋塚　～Flower of Japan)
TTITLE2=History of the Moon(drably lovers mix.)(千年幻想郷　～History of the Moon)
TTITLE3=少女さとり～Corazon Vagabundo～(少女さとり　～3rd eye)
TTITLE4=神々が恋した幻想郷～心象～(神々が恋した幻想郷)
TTITLE5=Intermezzo Space～in：out conception～(信仰は儚き人間の為に)
TTITLE6=A Native Face(blazin' house mix.)(ネイティブフェイス)
TTITLE7=C2U(月まで届け、不死の煙)
TTITLE8=Intermezzo Time～a sole and the galaxy～(風神少女)
TTITLE9=O Grande Amor(幽夢　～inanimate Dream)
TTITLE10=フラグメンツ(ネクロファンタジア)
TTITLE11=Into The Sea(万年置き傘にご注意を)
EXTD=YEAR: 2009
EXTT0=
EXTT1=
EXTT2=
EXTT3=
EXTT4=
EXTT5=
EXTT6=
EXTT7=
EXTT8=
EXTT9=
EXTT10=
EXTT11=
PLAYORDER=
